<svg width="16" height="16" viewBox="0 0 16 16" fill="none" xmlns="http://www.w3.org/2000/svg">
    <path fill-rule="evenodd" clip-rule="evenodd" d="M14.2929 15.7071C14.6834 16.0976 15.3166 16.0976 15.7071 15.7071C16.0976 15.3166 16.0976 14.6834 15.7071 14.2929L9.41422 8L15.7071 1.70711C16.0976 1.31658 16.0976 0.683417 15.7071 0.292893C15.3166 -0.0976312 14.6834 -0.0976308 14.2929 0.292893L8 6.58579L1.70711 0.292893C1.31658 -0.0976308 0.683417 -0.0976312 0.292893 0.292893C-0.0976312 0.683417 -0.0976308 1.31658 0.292893 1.70711L6.58579 8L0.292912 14.2929C-0.0976125 14.6834 -0.0976125 15.3166 0.292912 15.7071C0.683436 16.0976 1.3166 16.0976 1.70713 15.7071L8 9.41422L14.2929 15.7071Z" fill="#1A1A1A"/>
</svg>
