<svg width="32" height="32" viewBox="0 0 32 32" fill="none" xmlns="http://www.w3.org/2000/svg">
    <g clip-path="url(#clip0)">
        <path fill-rule="evenodd" clip-rule="evenodd" d="M16.048 0.960938C11.9159 0.960938 11.4354 1.05703 9.80178 1.05703C8.26424 1.15313 7.11109 1.44142 6.15013 1.8258C5.18917 2.21019 4.3243 2.69067 3.55553 3.55553C2.69067 4.3243 2.21019 5.18917 1.8258 6.15013C1.44142 7.11109 1.15313 8.26424 1.05703 9.80178C1.05703 11.4354 0.960938 11.9159 0.960938 16.048C0.960938 20.0841 1.05703 20.5645 1.05703 22.1982C1.15313 23.8318 1.44142 24.8889 1.8258 25.8498C2.21019 26.8108 2.69067 27.6757 3.55553 28.5405C4.3243 29.3093 5.18917 29.8859 6.15013 30.2702C7.11109 30.6546 8.26424 30.8468 9.80178 30.9429C11.4354 31.039 11.9159 31.039 16.048 31.039C20.0841 31.039 20.5645 31.039 22.1982 30.9429C23.8318 30.8468 24.8889 30.6546 25.8498 30.2702C26.8108 29.8859 27.6757 29.3093 28.5405 28.5405C29.3093 27.6757 29.8859 26.8108 30.2702 25.8498C30.6546 24.8889 30.8468 23.8318 30.9429 22.1982C31.039 20.5645 31.039 20.0841 31.039 16.048C31.039 11.9159 31.039 11.4354 30.9429 9.80178C30.8468 8.26424 30.6546 7.11109 30.2702 6.15013C29.8859 5.18917 29.3093 4.3243 28.5405 3.55553C27.6757 2.69067 26.8108 2.21019 25.8498 1.8258C24.8889 1.44142 23.8318 1.15313 22.1982 1.05703C20.5645 1.05703 20.0841 0.960938 16.048 0.960938ZM16.048 3.74772H22.1021C23.5435 3.84382 24.3123 4.13211 24.8889 4.3243C25.5615 4.61259 26.042 4.90088 26.6186 5.47745C27.0991 5.95793 27.4835 6.43842 27.6757 7.20718C27.9639 7.68766 28.1561 8.45643 28.2522 9.99397C28.3483 11.5315 28.3483 12.012 28.3483 16.048C28.3483 19.988 28.3483 20.4684 28.2522 22.1021C28.1561 23.5435 27.9639 24.3123 27.6757 24.8889C27.4835 25.5615 27.0991 26.042 26.6186 26.6186C26.042 27.0991 25.5615 27.4835 24.8889 27.6757C24.3123 27.9639 23.5435 28.1561 22.1021 28.2522C20.4684 28.3483 19.988 28.3483 16.048 28.3483C12.012 28.3483 11.5315 28.3483 9.99397 28.2522C8.45643 28.1561 7.68766 27.9639 7.20718 27.6757C6.43842 27.4835 5.95793 27.0991 5.47745 26.6186C4.90088 26.042 4.61259 25.5615 4.3243 24.8889C4.13211 24.3123 3.84382 23.5435 3.74772 22.1021V16.048V9.99397C3.84382 8.45643 4.13211 7.68766 4.3243 7.20718C4.61259 6.43842 4.90088 5.95793 5.47745 5.47745C5.95793 4.90088 6.43842 4.61259 7.20718 4.3243C7.68766 4.13211 8.45643 3.84382 9.99397 3.74772H16.048Z" fill="black"/>
        <path fill-rule="evenodd" clip-rule="evenodd" d="M16.0494 21.0449C13.2626 21.0449 11.0524 18.7386 11.0524 16.0479C11.0524 13.2611 13.2626 11.0509 16.0494 11.0509C18.7401 11.0509 21.0464 13.2611 21.0464 16.0479C21.0464 18.7386 18.7401 21.0449 16.0494 21.0449ZM16.0494 8.26411C11.7251 8.26411 8.26562 11.7236 8.26562 16.0479C8.26562 20.2761 11.7251 23.7356 16.0494 23.7356C20.2776 23.7356 23.7371 20.2761 23.7371 16.0479C23.7371 11.7236 20.2776 8.26411 16.0494 8.26411ZM25.8512 7.97582C25.8512 9.03288 24.9863 9.80165 24.0254 9.80165C23.0644 9.80165 22.1996 9.03288 22.1996 7.97582C22.1996 7.01486 23.0644 6.24609 24.0254 6.24609C24.9863 6.24609 25.8512 7.01486 25.8512 7.97582Z" fill="black"/>
    </g>
    <defs>
        <clipPath id="clip0">
            <rect width="32" height="32" fill="white"/>
        </clipPath>
    </defs>
</svg>
