<svg width="30" height="30" viewBox="0 0 30 30" fill="none" xmlns="http://www.w3.org/2000/svg">
    <path d="M9.44022 27.3621C20.7517 27.3621 26.9412 17.9819 26.9412 9.86112C26.9412 9.59723 26.9412 9.33333 26.9292 9.06944C28.1287 8.19379 29.1723 7.11422 30 5.89071C28.8725 6.38251 27.6849 6.71838 26.4614 6.86232C27.7449 6.09463 28.7045 4.88311 29.1603 3.45568C27.9488 4.1754 26.6293 4.67919 25.2499 4.94309C22.9228 2.46008 19.0244 2.34013 16.5414 4.67919C14.946 6.17859 14.2623 8.4217 14.7661 10.5568C9.82407 10.3049 5.20592 7.97787 2.08717 4.12741C0.455818 6.93429 1.28349 10.5329 3.9944 12.3441C3.0108 12.3201 2.06317 12.0562 1.19952 11.5764C1.19952 11.6004 1.19952 11.6244 1.19952 11.6484C1.19952 14.5752 3.26269 17.0942 6.14154 17.682C5.22991 17.9339 4.28229 17.9699 3.35866 17.79C4.16233 20.2969 6.47741 22.0123 9.10436 22.0602C6.92123 23.7756 4.23431 24.6992 1.46341 24.6992C0.971611 24.6992 0.479808 24.6632 0 24.6152C2.83087 26.4025 6.09356 27.3621 9.44022 27.3621Z" fill="black"/>
</svg>
