<svg width="30" height="30" viewBox="0 0 30 30" fill="none" xmlns="http://www.w3.org/2000/svg">
    <path fill-rule="evenodd" clip-rule="evenodd" d="M26.7194 4.62994C28.012 4.97764 29.0265 6.00027 29.3701 7.29697C30 9.65312 30 14.5659 30 14.5659C30 14.5659 30 19.4786 29.3701 21.8347C29.0265 23.1314 28.012 24.1541 26.7194 24.5018C24.3796 25.1317 15 25.1317 15 25.1317C15 25.1317 5.6204 25.1317 3.28061 24.5018C1.988 24.1541 0.973548 23.1314 0.629943 21.8347C0 19.4786 0 14.5659 0 14.5659C0 14.5659 0 9.65312 0.629943 7.29697C0.973548 6.00027 1.988 4.97764 3.28061 4.62994C5.6204 4 15 4 15 4C15 4 24.3796 4 26.7194 4.62994ZM19.7737 14.5657L11.9321 19.0244V10.1071L19.7737 14.5657Z" fill="black"/>
</svg>
