<svg width="167" height="16" viewBox="0 0 167 16" fill="none" xmlns="http://www.w3.org/2000/svg">
    <path d="M51.2603 0H39.9844C38.1044 0 35.8594 0.839511 35.8594 4.83307V11.1647C35.8594 15.1583 38.1044 15.9978 39.9844 15.9978H41.8879H42.8024H47.7359C48.6386 15.9978 49.6237 15.782 50.4047 15.1151C51.5429 14.2913 51.8608 13.0203 51.8608 11.8748V6.93185C51.8608 6.5984 51.5861 6.33164 51.2486 6.33164H49.137C48.7995 6.33164 48.5247 6.60232 48.5247 6.93185V11.0078H48.5208C48.5208 11.9258 47.7751 12.6711 46.8567 12.6711V12.675L42.559 12.6633H41.8879H40.7026C40.6947 12.6633 40.6869 12.6672 40.679 12.6672C39.8509 12.6672 39.1798 11.9964 39.1798 11.1686V4.83307C39.1798 4.00533 39.8509 3.33451 40.679 3.33451H51.2603C51.5939 3.33451 51.8608 3.0599 51.8608 2.72253V0.61198C51.8608 0.274606 51.5939 0 51.2603 0Z" fill="#F47A27"/>
    <path d="M120.119 0H117.905C117.697 0 117.505 0.125534 117.411 0.321682L115.476 4.36624L112.681 10.3448L109.887 4.36624L107.952 0.321682C107.861 0.125534 107.669 0 107.457 0H105.244C105.051 0 104.875 0.10592 104.773 0.274606C104.671 0.447216 104.659 0.662978 104.745 0.843434L111.154 14.9896C111.158 14.9974 111.162 14.9974 111.162 15.0053C111.41 15.6016 112.002 15.9899 112.65 15.9899C112.658 15.9899 112.669 15.9899 112.677 15.9899C112.685 15.9899 112.697 15.9899 112.705 15.9899C113.352 15.9939 113.945 15.6055 114.192 15.0053C114.196 14.9974 114.2 14.9974 114.2 14.9896L120.617 0.847357C120.703 0.666901 120.692 0.451139 120.59 0.278529C120.488 0.10592 120.307 0 120.119 0Z" fill="#F47A27"/>
    <path d="M96.6823 0.0078125C92.2669 0.0078125 88.6914 3.58554 88.6914 7.99493C88.6914 12.4043 92.2708 15.9821 96.6823 15.9821C101.094 15.9821 104.673 12.4043 104.673 7.99493C104.673 3.58554 101.094 0.0078125 96.6823 0.0078125ZM96.6784 12.675C94.0919 12.675 91.9961 10.5802 91.9961 7.99493C91.9961 5.40971 94.0919 3.31486 96.6784 3.31486C99.2648 3.31486 101.361 5.40971 101.361 7.99493C101.361 10.5802 99.2648 12.675 96.6784 12.675Z" fill="#F47A27"/>
    <path d="M3.32428 10.2624C3.32428 9.9329 3.59117 9.66614 3.92085 9.66614H8.09685H10.4321H15.4048C15.7385 9.66614 16.0053 9.39154 16.0053 9.05416V6.94362C16.0053 6.60624 15.7345 6.33164 15.4048 6.33164H10.436H8.10077H3.92477C3.59509 6.33164 3.32428 6.06488 3.32428 5.73143V4.83307C3.32428 4.00533 3.99542 3.33451 4.82356 3.33451C4.83141 3.33451 4.83926 3.33843 4.84711 3.33843H15.4048C15.7385 3.33843 16.0053 3.06382 16.0053 2.72645V0.61198C16.0093 0.274606 15.7385 0 15.4088 0H4.13279C2.2528 0 0.0078125 0.839511 0.0078125 4.83307V6.94362V9.05416V11.1647C0.0078125 15.1583 2.2528 15.9978 4.13279 15.9978H15.4088C15.7424 15.9978 16.0093 15.7232 16.0093 15.3858V13.2753C16.0093 12.9379 15.7385 12.6633 15.4088 12.6633H4.82356C3.99542 12.6633 3.32428 11.9924 3.32428 11.1647V10.2624Z" fill="#F47A27"/>
    <path d="M57.1055 10.2624C57.1055 9.9329 57.3724 9.66614 57.7021 9.66614H61.8781H64.2134H69.1861C69.5197 9.66614 69.7866 9.39154 69.7866 9.05416V6.94362C69.7866 6.60624 69.5158 6.33164 69.1861 6.33164H64.2173H61.882H57.706C57.3764 6.33164 57.1055 6.06488 57.1055 5.73143V4.83307C57.1055 4.00533 57.7767 3.33451 58.6048 3.33451C58.6127 3.33451 58.6205 3.33843 58.6284 3.33843H69.1861C69.5197 3.33843 69.7866 3.06382 69.7866 2.72645V0.61198C69.7866 0.274606 69.5158 0 69.1861 0H57.9101C56.0301 0 53.7852 0.839511 53.7852 4.83307V6.94362V9.05416V11.1647C53.7852 15.1583 56.0301 15.9978 57.9101 15.9978H69.1861C69.5197 15.9978 69.7866 15.7232 69.7866 15.3858V13.2753C69.7866 12.9379 69.5158 12.6633 69.1861 12.6633H58.6048C57.7767 12.6633 57.1055 11.9924 57.1055 11.1647V10.2624Z" fill="#F47A27"/>
    <path d="M124.961 10.2624C124.961 9.9329 125.228 9.66614 125.558 9.66614H129.734H132.069H137.042C137.375 9.66614 137.642 9.39154 137.642 9.05416V6.94362C137.642 6.60624 137.371 6.33164 137.042 6.33164H132.069H129.734H125.562C125.232 6.33164 124.961 6.06488 124.961 5.73143V4.83307C124.961 4.00533 125.632 3.33451 126.46 3.33451C126.468 3.33451 126.476 3.33843 126.484 3.33843H137.042C137.375 3.33843 137.642 3.06382 137.642 2.72645V0.61198C137.646 0.274606 137.375 0 137.042 0H125.766C123.886 0 121.641 0.839511 121.641 4.83307V6.94362V9.05416V11.1647C121.641 15.1583 123.886 15.9978 125.766 15.9978H137.042C137.375 15.9978 137.642 15.7232 137.642 15.3858V13.2753C137.642 12.9379 137.371 12.6633 137.042 12.6633H126.46C125.632 12.6633 124.961 11.9924 124.961 11.1647V10.2624Z" fill="#F47A27"/>
    <path d="M29.8062 0H20.6535H18.542H18.5302C18.3732 0 18.2319 0.0627672 18.1259 0.160841C18.1181 0.164764 18.1142 0.17261 18.1063 0.176533C18.1024 0.180456 18.0945 0.188301 18.0906 0.196147C17.9925 0.302067 17.9297 0.443293 17.9297 0.600211V0.61198V2.72253V5.57059V7.90474V13.2713V15.3819V15.3936C17.9297 15.5506 17.9925 15.6918 18.0906 15.7977C18.0945 15.8056 18.1024 15.8095 18.1063 15.8173C18.1102 15.8212 18.1181 15.8291 18.1259 15.833C18.2319 15.9311 18.3732 15.9939 18.5302 15.9939H18.542H20.6535H29.8062C31.6862 15.9939 33.9311 15.1543 33.9311 11.1608V4.83307C33.9311 0.839511 31.6901 0 29.8062 0ZM30.6147 4.83307V11.1647C30.6147 11.9924 29.9435 12.6633 29.1154 12.6633C29.1076 12.6633 29.0997 12.6594 29.0919 12.6594H21.8584C21.5287 12.6594 21.2658 12.3926 21.2658 12.067V7.90474V5.57059V3.93079C21.2658 3.60127 21.5327 3.33058 21.8663 3.33058H29.1193C29.9435 3.33451 30.6147 4.00533 30.6147 4.83307Z" fill="#F47A27"/>
    <path d="M78.6421 6.33164C78.3163 6.33164 78.0494 6.5984 78.0534 6.924L78.0612 9.47392C78.0612 9.53669 78.073 9.59945 78.0965 9.6583C78.1162 9.71322 78.1436 9.76422 78.1829 9.80737L83.8503 15.7742C83.9641 15.9115 84.1329 15.9899 84.3095 15.9899H87.1314C87.363 15.9899 87.5828 15.8566 87.677 15.6408C87.7908 15.3897 87.7123 15.0092 87.4847 14.7934L82.6336 9.6583C82.6336 9.6583 83.2969 9.6583 83.3126 9.65437C83.6619 9.59945 87.7084 8.86979 87.7084 4.82523C87.7045 0.608057 84.545 0 83.1988 0H74.4582C74.4543 0 74.4504 0 74.4465 0H72.3349C71.9974 0 71.7227 0.270683 71.7227 0.600211V5.57059V7.90474V15.3897C71.7227 15.7232 71.9974 15.9899 72.3349 15.9899H74.4465C74.784 15.9899 75.0587 15.7193 75.0587 15.3897V7.90474V5.57059V3.93079C75.0587 3.60127 75.3256 3.33843 75.6514 3.33843H82.9319C83.0065 3.33843 83.1046 3.34235 83.2027 3.37766C83.8739 3.52673 84.3802 4.12302 84.3802 4.84092C84.3802 5.56666 83.866 6.1708 83.1792 6.3081C83.085 6.33556 82.9986 6.33556 82.928 6.33556L78.6421 6.33164Z" fill="#F47A27"/>
    <path d="M146.486 6.33164C146.16 6.33164 145.893 6.5984 145.897 6.924L145.905 9.47392C145.905 9.53669 145.917 9.59945 145.94 9.6583C145.96 9.71322 145.987 9.76422 146.027 9.80737L151.694 15.7742C151.808 15.9115 151.977 15.9899 152.153 15.9899H154.975C155.207 15.9899 155.427 15.8566 155.521 15.6408C155.635 15.3897 155.556 15.0092 155.328 14.7934L150.477 9.6583C150.477 9.6583 151.141 9.6583 151.156 9.65437C151.506 9.59945 155.552 8.86979 155.552 4.82523C155.548 0.608057 152.389 0 151.043 0H142.302C142.298 0 142.294 0 142.29 0H140.179C139.841 0 139.566 0.270683 139.566 0.600211V5.57059V7.90474V15.3897C139.566 15.7232 139.841 15.9899 140.179 15.9899H142.29C142.628 15.9899 142.902 15.7193 142.902 15.3897V7.90474V5.57059V3.93079C142.902 3.60127 143.169 3.33843 143.495 3.33843H150.776C150.85 3.33843 150.948 3.34235 151.046 3.37766C151.718 3.52673 152.224 4.12302 152.224 4.84092C152.224 5.56666 151.71 6.1708 151.023 6.3081C150.929 6.33556 150.842 6.33556 150.772 6.33556L146.486 6.33164Z" fill="#F47A27"/>
    <path d="M165.25 11.8779L164.171 14.8241L163.005 11.8779H161.879V15.9931H162.617V12.5958L163.947 15.9931H164.375L165.639 12.5958V15.9931H166.396V11.8779H165.25Z" fill="#F47A27"/>
    <path d="M157.496 12.4899H158.811V15.9931H159.639V12.4899H160.954V11.8779H157.496V12.4899Z" fill="#F47A27"/>
</svg>
