<svg width="55" height="20" viewBox="0 0 55 20" fill="none" xmlns="http://www.w3.org/2000/svg">
    <g clip-path="url(#clip0)">
        <path d="M1.85086 5.71311C1.85086 5.52966 1.9998 5.38115 2.18379 5.38115H4.51434H5.8176H8.59279C8.77897 5.38115 8.92792 5.22828 8.92792 5.04046V3.86552C8.92792 3.6777 8.77678 3.52483 8.59279 3.52483H5.81979H4.51653H2.18598C2.00199 3.52483 1.85086 3.37632 1.85086 3.19069V2.69058C1.85086 2.22977 2.22541 1.85632 2.68757 1.85632C2.69195 1.85632 2.69634 1.85851 2.70072 1.85851H8.59279C8.77897 1.85851 8.92792 1.70563 8.92792 1.51782V0.34069C8.93011 0.152874 8.77897 0 8.59279 0H2.30207C1.2507 0 0 0.467356 0 2.69058V3.86552V5.04046V6.2154C0 8.43862 1.25289 8.90598 2.30207 8.90598H8.59498C8.78116 8.90598 8.93011 8.75311 8.93011 8.56529V7.39035C8.93011 7.20253 8.77897 7.04966 8.59498 7.04966H2.68757C2.22541 7.04966 1.85086 6.67621 1.85086 6.2154V5.71311Z" fill="#F47A28"/>
        <path d="M31.8709 5.71311C31.8709 5.52966 32.0198 5.38115 32.2038 5.38115H34.5343H35.8376H38.6128C38.799 5.38115 38.9479 5.22828 38.9479 5.04046V3.86552C38.9479 3.6777 38.7968 3.52483 38.6128 3.52483H35.8376H34.5343H32.2038C32.0198 3.52483 31.8687 3.37632 31.8687 3.19069V2.69058C31.8687 2.22977 32.2432 1.85632 32.7054 1.85632C32.7098 1.85632 32.7142 1.85851 32.7185 1.85851H38.6106C38.7968 1.85851 38.9457 1.70563 38.9457 1.51782V0.34069C38.9457 0.152874 38.7946 0 38.6106 0H32.3177C31.2685 0 30.0156 0.467356 30.0156 2.69058V3.86552V5.04046V6.2154C30.0156 8.43862 31.2685 8.90598 32.3177 8.90598H38.6106C38.7968 8.90598 38.9457 8.75311 38.9457 8.56529V7.39035C38.9457 7.20253 38.7946 7.04966 38.6106 7.04966H32.7054C32.2432 7.04966 31.8687 6.67621 31.8687 6.2154V5.71311H31.8709Z" fill="#F47A28"/>
        <path d="M31.8709 16.4687C31.8709 16.2853 32.0198 16.1368 32.2038 16.1368H34.5343H35.8376H38.6128C38.799 16.1368 38.9479 15.9839 38.9479 15.7961V14.6211C38.9479 14.4333 38.7968 14.2805 38.6128 14.2805H35.8376H34.5343H32.2038C32.0198 14.2805 31.8687 14.132 31.8687 13.9463V13.4462C31.8687 12.9854 32.2432 12.612 32.7054 12.612C32.7098 12.612 32.7142 12.6141 32.7185 12.6141H38.6106C38.7968 12.6141 38.9457 12.4613 38.9457 12.2734V11.0985C38.9457 10.9107 38.7946 10.7578 38.6106 10.7578H32.3177C31.2685 10.7578 30.0156 11.2252 30.0156 13.4484V14.6233V15.7983V16.9732C30.0156 19.1964 31.2685 19.6638 32.3177 19.6638H38.6106C38.7968 19.6638 38.9457 19.5109 38.9457 19.3231V18.1482C38.9457 17.9603 38.7946 17.8075 38.6106 17.8075H32.7054C32.2432 17.8075 31.8687 17.434 31.8687 16.9732V16.4687H31.8709Z" fill="#F47A28"/>
        <path d="M28.6028 0H22.3099C21.2607 0 20.0078 0.467356 20.0078 2.69058V6.2154C20.0078 8.43862 21.2607 8.90598 22.3099 8.90598H23.3722H23.8826H26.6358C27.1396 8.90598 27.6894 8.78587 28.1253 8.4146C28.7605 7.95598 28.9379 7.24839 28.9379 6.61069V3.85897C28.9379 3.67334 28.7846 3.52483 28.5962 3.52483H27.4178C27.2294 3.52483 27.0761 3.67552 27.0761 3.85897V6.12805H27.0739C27.0739 6.63908 26.6578 7.05403 26.1452 7.05403V7.05621L23.7468 7.04966H23.3722H22.7107C22.7063 7.04966 22.702 7.05184 22.6976 7.05184C22.2354 7.05184 21.8609 6.67839 21.8609 6.21759V2.69058C21.8609 2.22977 22.2354 1.85632 22.6976 1.85632H28.6028C28.789 1.85632 28.9379 1.70345 28.9379 1.51563V0.34069C28.9379 0.152874 28.789 0 28.6028 0Z" fill="#F47A28"/>
        <path d="M28.6236 10.7578H27.3882C27.2721 10.7578 27.1648 10.8277 27.1122 10.9369L26.0324 13.1885L24.4728 16.5168L22.9133 13.1885L21.8334 10.9369C21.7809 10.8277 21.6735 10.7578 21.5574 10.7578H20.3221C20.2148 10.7578 20.1162 10.8168 20.0592 10.9107C20.0023 11.0068 19.9957 11.1269 20.0439 11.2274L23.6208 19.1025C23.623 19.1069 23.6251 19.1069 23.6251 19.1113C23.7631 19.4432 24.0939 19.6594 24.4553 19.6594C24.4597 19.6594 24.4662 19.6594 24.4706 19.6594C24.475 19.6594 24.4816 19.6594 24.486 19.6594C24.8474 19.6616 25.1781 19.4454 25.3161 19.1113C25.3183 19.1069 25.3205 19.1069 25.3205 19.1025L28.8974 11.2274C28.9455 11.1269 28.939 11.0068 28.882 10.9107C28.8295 10.8168 28.7309 10.7578 28.6236 10.7578Z" fill="#F47A28"/>
        <path d="M14.4713 10.7627C12.0071 10.7627 10.0117 12.7544 10.0117 15.2091C10.0117 17.6639 12.0093 19.6556 14.4713 19.6556C16.9333 19.6556 18.9309 17.6639 18.9309 15.2091C18.9309 12.7544 16.9355 10.7627 14.4713 10.7627ZM14.4713 17.8145C13.0278 17.8145 11.8582 16.6483 11.8582 15.2091C11.8582 13.7699 13.0278 12.6037 14.4713 12.6037C15.9147 12.6037 17.0844 13.7699 17.0844 15.2091C17.0844 16.6483 15.9147 17.8145 14.4713 17.8145Z" fill="#F47A28"/>
        <path d="M16.6319 0H11.524H10.3456H10.339C10.2514 0 10.1726 0.0349425 10.1134 0.0895403C10.109 0.0917242 10.1069 0.096092 10.1025 0.0982759C10.1003 0.10046 10.0959 0.104828 10.0937 0.109195C10.039 0.168161 10.0039 0.246782 10.0039 0.334138V0.34069V1.51563V3.10115V4.40058V7.38816V8.56311V8.56966C10.0039 8.65702 10.039 8.73564 10.0937 8.7946C10.0959 8.79897 10.1003 8.80115 10.1025 8.80552C10.1047 8.8077 10.109 8.81207 10.1134 8.81426C10.1726 8.86885 10.2514 8.9038 10.339 8.9038H10.3456H11.524H16.6319C17.6811 8.9038 18.934 8.43644 18.934 6.21322V2.69058C18.934 0.467356 17.6833 0 16.6319 0ZM17.0832 2.69058V6.2154C17.0832 6.67621 16.7086 7.04966 16.2464 7.04966C16.2421 7.04966 16.2377 7.04747 16.2333 7.04747H12.1965C12.0125 7.04747 11.8657 6.89897 11.8657 6.7177V4.40058V3.10115V2.18828C11.8657 2.00483 12.0147 1.85414 12.2008 1.85414H16.2486C16.7086 1.85632 17.0832 2.22977 17.0832 2.69058Z" fill="#F47A28"/>
        <path d="M3.8638 14.2829C3.682 14.2829 3.53305 14.4314 3.53524 14.6126L3.53963 16.0322C3.53963 16.0671 3.5462 16.1021 3.55934 16.1348C3.57029 16.1654 3.58562 16.1938 3.60753 16.2178L6.77041 19.5395C6.83393 19.616 6.92812 19.6597 7.02668 19.6597H8.60155C8.73078 19.6597 8.85344 19.5854 8.90601 19.4653C8.96953 19.3255 8.92572 19.1137 8.79868 18.9936L6.0914 16.137C6.0914 16.137 6.46157 16.137 6.47033 16.1348C6.66527 16.1043 8.92354 15.698 8.92354 13.4464C8.92354 11.0944 7.16029 10.7559 6.409 10.7559H1.52668C1.52449 10.7559 1.5223 10.7559 1.52011 10.7559H0.341696C0.153325 10.758 0 10.9065 0 11.0922V13.8592V15.1586V19.3255C0 19.5112 0.153325 19.6597 0.341696 19.6597H1.52011C1.70848 19.6597 1.86181 19.509 1.86181 19.3255V15.1586V13.8592V12.9463C1.86181 12.7629 2.01075 12.6166 2.19255 12.6166H6.25567C6.29729 12.6166 6.35205 12.6187 6.40681 12.6384C6.78136 12.7214 7.06392 13.0533 7.06392 13.453C7.06392 13.857 6.77698 14.1933 6.39367 14.2698C6.3411 14.2851 6.29291 14.2851 6.25348 14.2851L3.8638 14.2829Z" fill="#F47A28"/>
        <path d="M43.885 14.2831C43.7032 14.2831 43.5543 14.4316 43.5565 14.6129L43.5609 16.0324C43.5609 16.0674 43.5674 16.1023 43.5806 16.1351C43.5915 16.1656 43.6069 16.194 43.6288 16.218L46.7917 19.5398C46.8552 19.6162 46.9494 19.6599 47.0479 19.6599H48.6228C48.752 19.6599 48.8747 19.5856 48.9273 19.4655C48.9908 19.3257 48.947 19.1139 48.8199 18.9938L46.1126 16.1351C46.1126 16.1351 46.4828 16.1351 46.4916 16.1329C46.6865 16.1023 48.9448 15.6961 48.9448 13.4445C48.9448 11.0924 47.1815 10.7539 46.4303 10.7539H41.5501C41.5479 10.7539 41.5457 10.7539 41.5436 10.7539H40.3651C40.1768 10.7539 40.0234 10.9046 40.0234 11.088V13.8551V15.1545V19.3214C40.0234 19.507 40.1768 19.6555 40.3651 19.6555H41.5436C41.7319 19.6555 41.8852 19.5048 41.8852 19.3214V15.1588V13.8594V12.9465C41.8852 12.7631 42.0342 12.6168 42.216 12.6168H46.2791C46.3207 12.6168 46.3755 12.619 46.4303 12.6386C46.8048 12.7216 47.0874 13.0536 47.0874 13.4532C47.0874 13.8572 46.8004 14.1936 46.4171 14.27C46.3645 14.2853 46.3164 14.2853 46.2769 14.2853L43.885 14.2831Z" fill="#F47A28"/>
        <path d="M54.362 17.3701L53.7596 19.0102L53.1091 17.3701H52.4805V19.661H52.8923V17.7698L53.6348 19.661H53.8735L54.5788 17.7698V19.661H55.0016V17.3701H54.362Z" fill="#F47A28"/>
        <path d="M50.0312 17.7108H50.765V19.661H51.2272V17.7108H51.961V17.3701H50.0312V17.7108Z" fill="#F47A28"/>
    </g>
    <defs>
        <clipPath id="clip0">
            <rect width="55" height="20" fill="white"/>
        </clipPath>
    </defs>
</svg>
